<svg xmlns="http://www.w3.org/2000/svg" viewBox="0 0 512 512" width="512" height="512"><rect width="512" height="512" fill="#f5f4f1"/><g transform="translate(9,24) scale(4.3)">
    <path d="M16,92 L50,16 L84,92" fill="none" stroke="#1C1E21" stroke-width="12" stroke-linejoin="round" stroke-linecap="round"/>
    <polygon points="28,63 28,76 68,54.4 68,50.4" fill="#1C1E21"/>
    <path transform="translate(78,43)" d="M0,-20 Q3.9,-3.9 20,0 Q3.9,3.9 0,20 Q-3.9,3.9 -20,0 Q-3.9,-3.9 0,-20 Z" fill="#f5f4f1"/>
    <path transform="translate(78,43)" d="M0,-16 Q3.5,-3.5 16,0 Q3.5,3.5 0,16 Q-3.5,3.5 -16,0 Q-3.5,-3.5 0,-16 Z" fill="#F97316"/>
    <path transform="translate(89,26)" d="M0,-11.5 Q2,-2 11.5,0 Q2,2 0,11.5 Q-2,2 -11.5,0 Q-2,-2 0,-11.5 Z" fill="#f5f4f1"/>
    <path transform="translate(89,26)" d="M0,-9 Q1.5,-1.5 9,0 Q1.5,1.5 0,9 Q-1.5,1.5 -9,0 Q-1.5,-1.5 0,-9 Z" fill="#F97316"/></g></svg>